<svg width="120" height="120" viewBox="0 0 120 120" fill="none" xmlns="http://www.w3.org/2000/svg">
  <g transform="translate(30, 30)">
    <circle cx="30" cy="30" r="15" fill="#E9F6DA" stroke="#75B626" stroke-width="2"/>
    <circle cx="30" cy="30" r="8" fill="white"/>
    <path d="M30 10 L35 20 L25 20 Z" fill="#75B626"/>
    <path d="M50 30 L40 25 L40 35 Z" fill="#75B626"/>
    <path d="M30 50 L25 40 L35 40 Z" fill="#75B626"/>
    <path d="M10 30 L20 35 L20 25 Z" fill="#75B626"/>
  </g>
  <g transform="translate(60, 50)">
    <circle cx="20" cy="20" r="12" fill="#9CA3AF" stroke="#6B7280" stroke-width="2"/>
    <circle cx="20" cy="20" r="6" fill="white"/>
    <path d="M20 5 L24 14 L16 14 Z" fill="#6B7280"/>
    <path d="M35 20 L26 16 L26 24 Z" fill="#6B7280"/>
    <path d="M20 35 L16 26 L24 26 Z" fill="#6B7280"/>
    <path d="M5 20 L14 24 L14 16 Z" fill="#6B7280"/>
  </g>
</svg>