<svg width="800" height="560" viewBox="0 0 800 560" fill="none" xmlns="http://www.w3.org/2000/svg">
  <defs>
    <filter id="shadow" x="-20%" y="-20%" width="140%" height="140%">
      <feDropShadow dx="0" dy="8" stdDeviation="12" flood-color="#000000" flood-opacity="0.1"/>
    </filter>
  </defs>
  
  <!-- Large gear -->
  <g transform="translate(280, 180)">
    <circle cx="80" cy="80" r="80" fill="#E9F6DA" filter="url(#shadow)"/>
    <circle cx="80" cy="80" r="60" fill="white" stroke="#75B626" stroke-width="4"/>
    <circle cx="80" cy="80" r="25" fill="#75B626"/>
    
    <!-- Gear teeth -->
    <rect x="75" y="0" width="10" height="20" fill="#75B626"/>
    <rect x="140" y="35" width="20" height="10" fill="#75B626"/>
    <rect x="140" y="115" width="20" height="10" fill="#75B626"/>
    <rect x="75" y="140" width="10" height="20" fill="#75B626"/>
    <rect x="0" y="115" width="20" height="10" fill="#75B626"/>
    <rect x="0" y="35" width="20" height="10" fill="#75B626"/>
    
    <!-- Diagonal teeth -->
    <rect x="120" y="20" width="14" height="10" fill="#75B626" transform="rotate(45 127 25)"/>
    <rect x="120" y="130" width="14" height="10" fill="#75B626" transform="rotate(-45 127 135)"/>
    <rect x="26" y="130" width="14" height="10" fill="#75B626" transform="rotate(45 33 135)"/>
    <rect x="26" y="20" width="14" height="10" fill="#75B626" transform="rotate(-45 33 25)"/>
  </g>
  
  <!-- Medium gear -->
  <g transform="translate(480, 240)">
    <circle cx="60" cy="60" r="60" fill="#9CA3AF" opacity="0.8" filter="url(#shadow)"/>
    <circle cx="60" cy="60" r="45" fill="white" stroke="#6B7280" stroke-width="3"/>
    <circle cx="60" cy="60" r="20" fill="#6B7280"/>
    
    <!-- Gear teeth -->
    <rect x="57" y="0" width="6" height="15" fill="#6B7280"/>
    <rect x="105" y="27" width="15" height="6" fill="#6B7280"/>
    <rect x="105" y="87" width="15" height="6" fill="#6B7280"/>
    <rect x="57" y="105" width="6" height="15" fill="#6B7280"/>
    <rect x="0" y="87" width="15" height="6" fill="#6B7280"/>
    <rect x="0" y="27" width="15" height="6" fill="#6B7280"/>
  </g>
  
  <!-- Small gear -->
  <g transform="translate(200, 320)">
    <circle cx="40" cy="40" r="40" fill="#E9F6DA" opacity="0.7" filter="url(#shadow)"/>
    <circle cx="40" cy="40" r="30" fill="white" stroke="#75B626" stroke-width="2"/>
    <circle cx="40" cy="40" r="12" fill="#75B626"/>
    
    <!-- Gear teeth -->
    <rect x="38" y="0" width="4" height="10" fill="#75B626"/>
    <rect x="70" y="18" width="10" height="4" fill="#75B626"/>
    <rect x="70" y="58" width="10" height="4" fill="#75B626"/>
    <rect x="38" y="70" width="4" height="10" fill="#75B626"/>
    <rect x="0" y="58" width="10" height="4" fill="#75B626"/>
    <rect x="0" y="18" width="10" height="4" fill="#75B626"/>
  </g>
  
  <!-- Decorative elements -->
  <circle cx="100" cy="100" r="15" fill="#E9F6DA" opacity="0.5"/>
  <circle cx="700" cy="120" r="20" fill="#75B626" opacity="0.3"/>
  <circle cx="650" cy="480" r="25" fill="#9CA3AF" opacity="0.4"/>
</svg>